<mxfile host="app.diagrams.net" modified="2024-01-18T12:18:31.211Z" agent="Mozilla/5.0 (X11; Ubuntu; Linux x86_64; rv:121.0) Gecko/20100101 Firefox/121.0" version="22.1.21" etag="z9envvjA0ks5cUR1f5kQ" type="github">
  <diagram name="Page-1" id="XtUNZOwcoPfhsKKO4HUN">
    <mxGraphModel>
      <root>
        <mxCell id="0" />
        <mxCell id="1" parent="0" />
      </root>
    </mxGraphModel>
  </diagram>
</mxfile>
